<?xml version="1.0" encoding="UTF-8"?>
<svg xmlns="http://www.w3.org/2000/svg" width="384" height="512" viewBox="0 0 384 512">
  <defs>
    <linearGradient id="bg4" x1="0" y1="0" x2="0" y2="1">
      <stop offset="0" stop-color="#322a36"/><stop offset="1" stop-color="#1b1620"/>
    </linearGradient>
    <radialGradient id="skin4" cx="0.5" cy="0.42" r="0.7">
      <stop offset="0" stop-color="#f3d8bd"/><stop offset="1" stop-color="#e6c2a2"/>
    </radialGradient>
  </defs>
  <rect width="384" height="512" fill="url(#bg4)"/>
  <!-- 脖子 + 肩 -->
  <rect x="150" y="340" width="84" height="70" rx="24" fill="#e6c2a2"/>
  <path d="M 42 512 Q 72 400 192 410 Q 312 400 342 512 Z" fill="#322a36" opacity="0.9"/>
  <path d="M 72 512 Q 96 418 192 426 Q 288 418 312 512 Z" fill="#3a3a42"/>
  <!-- 后发(长发垂肩) -->
  
  <!-- 脸 -->
  <ellipse cx="192" cy="250" rx="118" ry="150" fill="url(#skin4)"/>
  <!-- 腮红 -->
  <ellipse cx="130" cy="274" rx="22" ry="14" fill="#e08a72" opacity="0.18"/>
  <ellipse cx="254" cy="274" rx="22" ry="14" fill="#e08a72" opacity="0.18"/>
  
  <!-- 鼻 -->
  <path d="M 186 238 L 179 268 Q 192 280 205 268 L 198 238" fill="none" stroke="#e6c2a2" stroke-width="3"/>
  <ellipse cx="183" cy="272" rx="4" ry="3" fill="#e6c2a2" opacity="0.7"/>
  <ellipse cx="201" cy="272" rx="4" ry="3" fill="#e6c2a2" opacity="0.7"/>
  <!-- 眉 / 眼 / 嘴 -->
  <path d="M 116 201 Q 142 190 168 204" stroke="#33271d" stroke-width="7" fill="none" stroke-linecap="round"/> <path d="M 216 204 Q 242 190 268 201" stroke="#33271d" stroke-width="7" fill="none" stroke-linecap="round"/>
  
    <ellipse cx="142" cy="232" rx="26" ry="15" fill="#fbfbf8"/>
    <ellipse cx="142" cy="232" rx="26" ry="15" fill="none" stroke="#8a7560" stroke-width="1.5"/>
    <circle cx="142" cy="232" r="10.5" fill="#4a3526"/>
    <circle cx="142" cy="232" r="5" fill="#1a120c"/>
    <circle cx="139" cy="228" r="2.2" fill="#ffffff" opacity="0.9"/> 
    <ellipse cx="242" cy="232" rx="26" ry="15" fill="#fbfbf8"/>
    <ellipse cx="242" cy="232" rx="26" ry="15" fill="none" stroke="#8a7560" stroke-width="1.5"/>
    <circle cx="242" cy="232" r="10.5" fill="#4a3526"/>
    <circle cx="242" cy="232" r="5" fill="#1a120c"/>
    <circle cx="239" cy="228" r="2.2" fill="#ffffff" opacity="0.9"/>
  <path d="M 158 322 Q 192 348 226 322" stroke="#cc6f6a" stroke-width="8" fill="none" stroke-linecap="round"/>
       <path d="M 162 324 Q 192 338 222 324" stroke="#ffffff" stroke-width="3" fill="none" opacity="0.55"/>
  <!-- 前发 -->
  <circle cx="192" cy="100" r="34" fill="#33271d"/><path d="M 80 220 Q 74 110 192 100 Q 310 110 304 220 Q 192 132 80 220 Z" fill="#33271d"/>
  <text x="14" y="498" font-family="monospace" font-size="13" fill="#f0a83a" opacity="0.85">SAMPLE · 女·盘发</text>
</svg>