<svg xmlns="http://www.w3.org/2000/svg" width="560" height="128" viewBox="0 0 560 128" role="img" aria-labelledby="title">
  <title>AI 明星带货 logo</title>
  <rect x="8" y="8" width="112" height="112" rx="30" fill="oklch(0.97 0.013 80)" stroke="oklch(0.84 0.075 78)" stroke-width="2" />
  <circle cx="60" cy="64" r="33" fill="none" stroke="oklch(0.74 0.14 78)" stroke-width="7" stroke-linecap="round" stroke-dasharray="128 74" transform="rotate(134 60 64)" />
  <circle cx="88" cy="39" r="7" fill="oklch(0.8 0.13 78)" />
  <path d="M55 40c4 13.4 12.2 21.6 26 25-13.8 3.4-22 11.6-26 25-4-13.4-12.2-21.6-26-25 13.8-3.4 22-11.6 26-25Z" fill="oklch(0.22 0.024 76)" />
  <path d="M87 59h25l13 13v32H87z" fill="oklch(0.8 0.13 78)" />
  <path d="M105 72l4 9 10 1-7 7 2 10-9-5-9 5 2-10-7-7 10-1 4-9Z" fill="oklch(0.22 0.024 76)" />
  <text x="144" y="58" font-family="Inter, 'Noto Sans SC', ui-sans-serif, system-ui, sans-serif" font-size="29" font-weight="800" fill="oklch(0.22 0.024 76)">AI 明星带货</text>
  <text x="146" y="88" font-family="Inter, ui-sans-serif, system-ui, sans-serif" font-size="15" font-weight="650" letter-spacing="2.2" fill="oklch(0.55 0.12 78)">AI STAR ECO · COMMERCE</text>
</svg>
