<svg xmlns="http://www.w3.org/2000/svg" width="560" height="128" viewBox="0 0 560 128" role="img" aria-labelledby="title">
  <title>AI 明星带货 logo</title>
  <circle cx="64" cy="64" r="56" fill="oklch(0.72 0.15 78)" />
  <path d="M39 33h37c5 0 10 2 13 6l19 18c5 5 5 14 0 19l-33 33c-5 5-13 5-18 0L25 77c-4-4-6-8-6-13V46c0-7 6-13 13-13h7Z" fill="oklch(0.98 0.006 90)" />
  <circle cx="43" cy="56" r="7" fill="oklch(0.72 0.15 78)" />
  <path d="M71 52 77 64l13 2-10 9 3 14-12-7-12 7 3-14-10-9 13-2 6-12Z" fill="oklch(0.72 0.15 78)" />
  <text x="144" y="58" font-family="Inter, 'Noto Sans SC', ui-sans-serif, system-ui, sans-serif" font-size="29" font-weight="800" fill="oklch(0.22 0.024 76)">AI 明星带货</text>
  <text x="146" y="88" font-family="Inter, ui-sans-serif, system-ui, sans-serif" font-size="15" font-weight="650" letter-spacing="2.2" fill="oklch(0.55 0.12 78)">AI STAR ECO · COMMERCE</text>
</svg>
