<svg xmlns="http://www.w3.org/2000/svg" viewBox="0 0 512 512" role="img" aria-labelledby="title">
  <title>AiAvatar favicon</title>
  <circle cx="256" cy="256" r="232" fill="oklch(0.62 0.12 190)" />
  <path d="M160 185c0-47 38-85 96-85s96 38 96 85v44c0 76-42 139-96 139s-96-63-96-139v-44Z" fill="none" stroke="oklch(0.98 0.006 90)" stroke-width="32" stroke-linecap="round" stroke-linejoin="round" />
  <path d="M189 306c38 35 96 35 134 0M190 235h38M284 235h38" stroke="oklch(0.98 0.006 90)" stroke-width="28" stroke-linecap="round" />
  <path d="M105 174v-42c0-16 13-29 29-29h42M407 174v-42c0-16-13-29-29-29h-42M105 338v42c0 16 13 29 29 29h42M407 338v42c0 16-13 29-29 29h-42" fill="none" stroke="oklch(0.98 0.006 90)" stroke-width="28" stroke-linecap="round" />
</svg>
