<svg xmlns="http://www.w3.org/2000/svg" viewBox="0 0 512 512" role="img" aria-labelledby="title">
  <title>短剧工坊 favicon</title>
  <circle cx="256" cy="256" r="232" fill="oklch(0.68 0.18 48)" />
  <path d="M135 206h242c28 0 50 22 50 50v106c0 28-22 50-50 50H135c-28 0-50-22-50-50V256c0-28 22-50 50-50Z" fill="oklch(0.98 0.006 90)" />
  <path d="M92 186 390 99l30 80-298 87-30-80Z" fill="oklch(0.98 0.006 90)" />
  <path d="M152 168 191 139M238 143l39-29M324 118l39-29M132 261h248" stroke="oklch(0.68 0.18 48)" stroke-width="24" stroke-linecap="round" />
  <path d="M223 292 315 346 223 400V292Z" fill="oklch(0.68 0.18 48)" />
</svg>
