<svg xmlns="http://www.w3.org/2000/svg" width="560" height="128" viewBox="0 0 560 128" role="img" aria-labelledby="title">
  <title>AI Star Eco Admin logo</title>
  <rect x="8" y="8" width="112" height="112" rx="30" fill="oklch(0.97 0.009 150)" stroke="oklch(0.78 0.06 145)" stroke-width="2" />
  <circle cx="60" cy="64" r="33" fill="none" stroke="oklch(0.64 0.14 145)" stroke-width="7" stroke-linecap="round" stroke-dasharray="128 74" transform="rotate(136 60 64)" />
  <circle cx="88" cy="39" r="7" fill="oklch(0.68 0.13 145)" />
  <path d="M55 40c4 13.4 12.2 21.6 26 25-13.8 3.4-22 11.6-26 25-4-13.4-12.2-21.6-26-25 13.8-3.4 22-11.6 26-25Z" fill="oklch(0.22 0.024 145)" />
  <path d="M85 58h16v16H85zM111 58h16v16h-16zM85 84h16v16H85zM111 84h16v16h-16z" fill="oklch(0.64 0.14 145)" />
  <path d="M88 113l11 11 27-31" fill="none" stroke="oklch(0.64 0.14 145)" stroke-width="6" stroke-linecap="round" stroke-linejoin="round" />
  <text x="144" y="58" font-family="Inter, ui-sans-serif, system-ui, sans-serif" font-size="29" font-weight="800" fill="oklch(0.2 0.014 150)">AI Star Eco</text>
  <text x="146" y="88" font-family="Inter, 'Noto Sans SC', ui-sans-serif, system-ui, sans-serif" font-size="15" font-weight="650" letter-spacing="2" fill="oklch(0.48 0.1 145)">运营工作台 · ADMIN</text>
</svg>
