<svg xmlns="http://www.w3.org/2000/svg" viewBox="0 0 512 512" role="img" aria-labelledby="title">
  <title>AI 明星带货 favicon</title>
  <circle cx="256" cy="256" r="232" fill="oklch(0.72 0.15 78)" />
  <path d="M159 133h147c20 0 39 8 53 22l75 75c20 20 20 52 0 72L304 432c-20 20-52 20-72 0L104 304c-14-14-22-32-22-52V184c0-28 22-51 51-51h26Z" fill="oklch(0.98 0.006 90)" />
  <circle cx="174" cy="225" r="29" fill="oklch(0.72 0.15 78)" />
  <path d="M282 209 305 258l54 7-39 38 10 54-48-26-48 26 10-54-39-38 54-7 23-49Z" fill="oklch(0.72 0.15 78)" />
</svg>
