<svg xmlns="http://www.w3.org/2000/svg" viewBox="0 0 512 512" role="img" aria-labelledby="title">
  <title>明星商务工作台 favicon</title>
  <defs>
    <linearGradient id="core" x1="96" y1="72" x2="416" y2="440" gradientUnits="userSpaceOnUse">
      <stop offset="0" stop-color="oklch(0.3 0.035 250)" />
      <stop offset="1" stop-color="oklch(0.16 0.018 258)" />
    </linearGradient>
  </defs>
  <rect width="512" height="512" rx="120" fill="url(#core)" />
  <rect x="42" y="42" width="428" height="428" rx="100" fill="none" stroke="oklch(0.75 0.13 250 / 0.24)" stroke-width="2" />
  <circle cx="238" cy="250" r="124" fill="none" stroke="oklch(0.68 0.14 250)" stroke-width="22" stroke-linecap="round" stroke-dasharray="420 310" transform="rotate(136 238 250)" />
  <circle cx="346" cy="150" r="28" fill="oklch(0.72 0.13 250)" />
  <path d="M218 166c15 49 44 78 93 93-49 15-78 44-93 93-15-49-44-78-93-93 49-15 78-44 93-93Z" fill="oklch(0.98 0.006 90)" />
  <path d="M333 226h94c15 0 27 12 27 27v118c0 15-12 27-27 27h-94c-15 0-27-12-27-27V253c0-15 12-27 27-27Z" fill="none" stroke="oklch(0.78 0.11 250)" stroke-width="20" stroke-linejoin="round" />
  <path d="M337 275h85M337 319h56" stroke="oklch(0.78 0.11 250)" stroke-width="18" stroke-linecap="round" />
  <path d="M427 336l18 10 18-10v45l-18-10-18 10v-45Z" fill="oklch(0.78 0.11 250)" />
  <circle cx="346" cy="150" r="8" fill="oklch(0.24 0.03 250)" />
</svg>
