<svg xmlns="http://www.w3.org/2000/svg" width="600" height="128" viewBox="0 0 600 128" role="img" aria-labelledby="title">
  <title>明星商务工作台 logo</title>
  <circle cx="64" cy="64" r="56" fill="oklch(0.62 0.18 28)" />
  <path d="M40 24h38l17 17v59c0 7-6 13-13 13H40c-7 0-13-6-13-13V37c0-7 6-13 13-13Z" fill="oklch(0.98 0.006 90)" />
  <path d="M77 26v17h17" fill="none" stroke="oklch(0.62 0.18 28)" stroke-width="7" stroke-linecap="round" stroke-linejoin="round" />
  <path d="M61 54 67 66l13 2-9 9 2 13-12-6-11 6 2-13-9-9 13-2 5-12Z" fill="oklch(0.62 0.18 28)" />
  <path d="M41 96h29" stroke="oklch(0.62 0.18 28)" stroke-width="7" stroke-linecap="round" />
  <text x="144" y="58" font-family="Inter, 'Noto Sans SC', ui-sans-serif, system-ui, sans-serif" font-size="29" font-weight="800" fill="oklch(0.22 0.022 60)">明星商务工作台</text>
  <text x="146" y="88" font-family="Inter, ui-sans-serif, system-ui, sans-serif" font-size="15" font-weight="650" letter-spacing="2.2" fill="oklch(0.5 0.12 28)">AI STAR ECO · STAR BUSINESS</text>
</svg>
