<svg xmlns="http://www.w3.org/2000/svg" width="600" height="128" viewBox="0 0 600 128" role="img" aria-labelledby="title">
  <title>明星商务工作台 logo</title>
  <rect x="8" y="8" width="112" height="112" rx="30" fill="oklch(0.97 0.008 72)" stroke="oklch(0.79 0.07 78)" stroke-width="2" />
  <circle cx="60" cy="64" r="33" fill="none" stroke="oklch(0.68 0.13 250)" stroke-width="7" stroke-linecap="round" stroke-dasharray="128 74" transform="rotate(136 60 64)" />
  <circle cx="88" cy="39" r="7" fill="oklch(0.7 0.13 250)" />
  <path d="M55 40c4 13.4 12.2 21.6 26 25-13.8 3.4-22 11.6-26 25-4-13.4-12.2-21.6-26-25 13.8-3.4 22-11.6 26-25Z" fill="oklch(0.23 0.026 250)" />
  <path d="M86 55h35v45H86zM94 70h21M94 84h14M116 88l7 4 7-4v18l-7-4-7 4V88Z" fill="none" stroke="oklch(0.67 0.12 250)" stroke-width="5.5" stroke-linecap="round" stroke-linejoin="round" />
  <text x="144" y="58" font-family="Inter, 'Noto Sans SC', ui-sans-serif, system-ui, sans-serif" font-size="29" font-weight="800" fill="oklch(0.22 0.022 60)">明星商务工作台</text>
  <text x="146" y="88" font-family="Inter, ui-sans-serif, system-ui, sans-serif" font-size="15" font-weight="650" letter-spacing="2.2" fill="oklch(0.5 0.11 250)">AI STAR ECO · STAR BUSINESS</text>
</svg>
