<svg xmlns="http://www.w3.org/2000/svg" width="560" height="128" viewBox="0 0 560 128" role="img" aria-labelledby="title">
  <title>短剧工坊 logo</title>
  <circle cx="64" cy="64" r="56" fill="oklch(0.68 0.18 48)" />
  <path d="M34 54h60c7 0 13 6 13 13v27c0 7-6 13-13 13H34c-7 0-13-6-13-13V67c0-7 6-13 13-13Z" fill="oklch(0.98 0.006 90)" />
  <path d="M23 49 98 27l8 20-75 22-8-20Z" fill="oklch(0.98 0.006 90)" />
  <path d="M38 44 48 36M60 38l10-7M81 33l10-7M32 68h64" stroke="oklch(0.68 0.18 48)" stroke-width="6" stroke-linecap="round" />
  <path d="M56 76 80 90 56 104V76Z" fill="oklch(0.68 0.18 48)" />
  <text x="144" y="58" font-family="Inter, 'Noto Sans SC', ui-sans-serif, system-ui, sans-serif" font-size="29" font-weight="820" fill="oklch(0.22 0.025 42)">短剧工坊</text>
  <text x="146" y="88" font-family="Inter, ui-sans-serif, system-ui, sans-serif" font-size="15" font-weight="650" letter-spacing="2.2" fill="oklch(0.56 0.14 48)">AI STAR ECO · DRAMA</text>
</svg>
