<svg xmlns="http://www.w3.org/2000/svg" width="560" height="128" viewBox="0 0 560 128" role="img" aria-labelledby="title">
  <title>短剧工坊 logo</title>
  <rect x="8" y="8" width="112" height="112" rx="30" fill="oklch(0.97 0.012 64)" stroke="oklch(0.83 0.06 58)" stroke-width="2" />
  <circle cx="60" cy="64" r="33" fill="none" stroke="oklch(0.68 0.18 48)" stroke-width="7" stroke-linecap="round" stroke-dasharray="128 74" transform="rotate(136 60 64)" />
  <circle cx="88" cy="39" r="7" fill="oklch(0.74 0.16 48)" />
  <path d="M55 40c4 13.4 12.2 21.6 26 25-13.8 3.4-22 11.6-26 25-4-13.4-12.2-21.6-26-25 13.8-3.4 22-11.6 26-25Z" fill="oklch(0.22 0.025 42)" />
  <path d="M84 61h35v31H84zM83 61h37M89 61l10-15M105 61l10-15M101 72l16 10-16 10V72Z" fill="none" stroke="oklch(0.68 0.18 48)" stroke-width="5" stroke-linecap="round" stroke-linejoin="round" />
  <text x="144" y="58" font-family="Inter, 'Noto Sans SC', ui-sans-serif, system-ui, sans-serif" font-size="29" font-weight="820" fill="oklch(0.22 0.025 42)">短剧工坊</text>
  <text x="146" y="88" font-family="Inter, ui-sans-serif, system-ui, sans-serif" font-size="15" font-weight="650" letter-spacing="2.2" fill="oklch(0.56 0.14 48)">AI STAR ECO · DRAMA</text>
</svg>
