<svg xmlns="http://www.w3.org/2000/svg" width="560" height="128" viewBox="0 0 560 128" role="img" aria-labelledby="title">
  <title>AiAvatar logo</title>
  <rect x="8" y="8" width="112" height="112" rx="30" fill="oklch(0.97 0.009 210)" stroke="oklch(0.82 0.055 195)" stroke-width="2" />
  <circle cx="60" cy="64" r="33" fill="none" stroke="oklch(0.68 0.12 190)" stroke-width="7" stroke-linecap="round" stroke-dasharray="128 74" transform="rotate(135 60 64)" />
  <circle cx="88" cy="39" r="7" fill="oklch(0.73 0.115 190)" />
  <path d="M55 40c4 13.4 12.2 21.6 26 25-13.8 3.4-22 11.6-26 25-4-13.4-12.2-21.6-26-25 13.8-3.4 22-11.6 26-25Z" fill="oklch(0.22 0.024 205)" />
  <path d="M86 61h-9V49h11M111 49h11v12M122 84v12h-11M88 96H77V84M91 75c0-9 7-16 17-16s17 7 17 16M95 87c8 6 18 6 26 0" fill="none" stroke="oklch(0.66 0.11 190)" stroke-width="5.5" stroke-linecap="round" />
  <text x="144" y="58" font-family="Inter, 'Noto Sans SC', ui-sans-serif, system-ui, sans-serif" font-size="29" font-weight="800" fill="oklch(0.2 0.02 205)">AiAvatar</text>
  <text x="146" y="88" font-family="Inter, 'Noto Sans SC', ui-sans-serif, system-ui, sans-serif" font-size="15" font-weight="650" letter-spacing="2" fill="oklch(0.52 0.095 190)">数字人资产平台</text>
</svg>
